<?xml version="1.0" encoding="utf-8"?>
<!-- Generator: Adobe Illustrator 16.0.4, SVG Export Plug-In . SVG Version: 6.00 Build 0)  -->
<!DOCTYPE svg PUBLIC "-//W3C//DTD SVG 1.1//EN" "http://www.w3.org/Graphics/SVG/1.1/DTD/svg11.dtd">
<svg version="1.1" id="Layer_1" xmlns="http://www.w3.org/2000/svg" xmlns:xlink="http://www.w3.org/1999/xlink" x="0px" y="0px"
	 width="100%" height="100%" style="fill: #9d9d9d;" viewBox="0 0 50 50" enable-background="new 0 0 50 50" xml:space="preserve">
<path d="M35.174,40.667c-0.062-0.307-0.629-0.467-0.771-0.499c-0.797-0.38-1.236-0.966-1.34-1.789
	c-0.062-0.474-0.02-1.101,0.027-1.765c0.051-0.733,0.104-1.492,0.02-2.117c-0.115-0.871-0.441-1.36-0.68-1.719
	c-0.1-0.148-0.188-0.278-0.236-0.404c-0.18-0.438-0.207-1.445-0.148-1.975c0.023-0.217,0.072-0.526,0.109-0.769
	c0.023-0.155,0.045-0.284,0.051-0.344c0.164-1.374-0.082-2.4-0.201-2.791c-0.217-0.841-0.988-2.673-1.027-2.763
	c-0.117-0.228-0.439-1.48-0.137-2.308c0.232-0.638,0.941-1.481,1.514-2.159c0.412-0.49,0.736-0.879,0.82-1.117
	c0.027-0.102,0.633-2.475-0.531-2.828c-0.6-0.319-2.182-1.273-2.4-1.887l0.037-0.369c0.029-0.068,0.1-0.267,0.111-0.539
	c0.145-0.121,0.463-0.449,0.395-1c0.014-0.088,0.031-0.287-0.068-0.406c-0.049-0.059-0.117-0.09-0.193-0.092
	c0.031-0.358,0.025-1.026-0.354-1.517c-0.271-0.353-0.686-0.545-1.234-0.571c-0.666,0.004-1.93,0.336-1.93,1.555
	c0,0.038,0.027,0.375,0.049,0.637c-0.104-0.003-0.174,0.043-0.205,0.081c-0.033,0.038-0.07,0.106-0.057,0.192
	c-0.004,0.162-0.012,0.93,0.375,1.127c0.035,0.224,0.139,0.705,0.379,0.916l0.014,0.604l-0.605,0.355
	c-0.189-0.094-0.703-0.312-1.338-0.312c-0.676,0-1.27,0.243-1.772,0.724c-0.412,0.004-2.072,0.061-2.666,0.795
	c-0.352-0.16-1.471-0.617-3.293-0.875c-0.229-0.031-0.65-0.242-0.83-0.442c-0.048-0.192-0.279-1.008-0.894-1.008
	c-0.112,0-0.229,0.028-0.351,0.085c-0.328,0.154-0.883,0.809-0.978,1.393c-0.045,0.274,0.021,0.504,0.199,0.676
	c0.017,0.013,0.42,0.318,0.948,0.318c0.183,0,0.359-0.037,0.526-0.109c0.097,0.022,0.358,0.105,0.644,0.357
	c0.07,0.067,1.726,1.667,3.847,1.667c0.08,0,0.161-0.002,0.243-0.007c0.115,0.037,0.586,0.184,1.398,0.393
	c0.202,0.053,0.51,0.121,0.857,0.121c0.518,0,0.959-0.154,1.314-0.459c0.045,0.318,0.162,0.832,0.465,1.379l-1.195,0.014
	c-0.133-0.133-0.496-0.461-0.809-0.461c-0.141,0-0.258,0.062-0.338,0.182c-0.236,0.098-0.797,0.364-0.844,0.701
	c-0.01,0.074,0,0.179,0.09,0.279c-0.035,0.158-0.027,0.377,0.146,0.516c-0.008,0.061-0.006,0.133,0.023,0.211
	c0.025,0.071,0.084,0.167,0.213,0.244c0.078,0.23,0.426,0.521,1.31,0.229c0.019-0.009,0.17-0.09,0.296-0.301
	c0.23,0.027,0.825,0.12,1.258,0.34c0.008,0.021,0.02,0.034,0.033,0.051c-0.021,0.106-0.055,0.269-0.098,0.483
	c-0.021,0.022-0.032,0.054-0.034,0.086c-0.003,0.05-0.011,0.095-0.017,0.14c-0.006,0.039-0.013,0.078-0.015,0.104
	c-0.05,0.257-0.106,0.554-0.163,0.865c-0.013,0.041-0.023,0.085-0.035,0.129c-0.02,0.071-0.037,0.144-0.062,0.2
	c-0.304,0.707-0.833,1.961-0.838,1.973c-0.946,2.893-0.585,3.982-0.203,5.137l0.06,0.178c0.086,0.262,0.103,0.764,0.115,1.205
	c0.012,0.314,0.021,0.611,0.053,0.813c0.129,0.799,0.422,2.509,0.621,3.265c0.217,0.812,0.465,1.387,0.665,1.848
	c0.279,0.648,0.436,1.007,0.258,1.423c-0.031,0.065-0.275,0.305-0.481,0.483c-0.014,0.013-0.023,0.025-0.032,0.041
	c-0.265,0.477-1.062,0.506-1.069,0.506c-0.021,0-0.041,0.006-0.059,0.014c-0.396,0.178-0.577,0.35-0.57,0.539
	c0.006,0.201,0.219,0.288,0.233,0.293c0.062,0.027,0.185,0.064,0.526,0.064c0.551,0,1.315-0.094,1.348-0.099
	c0.025-0.003,0.049-0.012,0.068-0.026c0.08-0.059,0.303-0.156,0.889-0.156c0.379,0,0.721,0.043,0.725,0.043
	c0.006,0.001,0.037,0.002,0.043,0.002c0.268,0,0.406-0.12,0.479-0.223c0.236-0.342,0.025-0.938,0.006-0.99l-0.035-0.135
	c-0.174-0.683-0.586-2.277-0.383-2.959c0.234-0.791,0.268-2.07,0.186-2.604c-0.084-0.562-0.652-1.544-0.812-1.812
	c0.533-1.226,0.992-3.086,1.213-4.057c0.047,0.196,0.096,0.396,0.145,0.596c0.125,0.528,0.248,1.041,0.342,1.406
	c0.49,1.893,1.264,2.654,1.529,2.87c-0.637,2.386-0.133,3.332,0.49,4.165c0.752,1.005,1.039,2.512,1.086,2.779
	c-0.121,0.298-0.125,0.634-0.127,0.647c0,0.019,0.004,0.034,0.01,0.052c0.107,0.303,0.521,0.457,1.234,0.457
	c0.109,0,0.195-0.004,0.24-0.008c0.533,0.188,1.297,0.215,1.711,0.215c0.135,0,0.217-0.004,0.217-0.004
	c0.029,0,0.061-0.011,0.084-0.029C35.178,40.894,35.191,40.757,35.174,40.667z M31.193,25.077L28,27.021l-3.391-2.134
	c0.031-0.075,0.067-0.161,0.108-0.258h2.312c0.084,0,0.15-0.067,0.15-0.149c0-0.084-0.066-0.15-0.15-0.15h-2.184
	c0.045-0.105,0.09-0.214,0.137-0.324h2.329c0.084,0,0.15-0.066,0.15-0.15c0-0.082-0.066-0.149-0.15-0.149h-2.2
	c0.059-0.138,0.113-0.269,0.166-0.388h5.258c0.057,0.254,0.123,0.457,0.17,0.547C30.709,23.873,30.945,24.435,31.193,25.077z
	 M24.097,20.407c-0.062,0.002-0.123,0.029-0.148,0.086c-0.084,0.18-0.195,0.248-0.189,0.248c-0.223,0.07-0.412,0.105-0.564,0.105
	c-0.317,0-0.346-0.154-0.348-0.169c-0.004-0.056-0.037-0.104-0.089-0.128c-0.159-0.072-0.145-0.173-0.122-0.225
	c0.018-0.036,0.018-0.078,0.004-0.116c-0.014-0.037-0.043-0.067-0.078-0.084c-0.15-0.067-0.084-0.261-0.069-0.297
	c0.026-0.062,0.006-0.136-0.048-0.177c-0.026-0.021-0.059-0.049-0.055-0.073c0.018-0.127,0.385-0.356,0.703-0.482
	c0.034-0.014,0.062-0.038,0.078-0.069c0.034-0.066,0.071-0.071,0.104-0.071c0.18,0,0.484,0.254,0.636,0.414
	c0.028,0.03,0.073,0.052,0.11,0.048l1.424-0.016c0.029,0.031,0.067,0.052,0.108,0.052c0.033,0,0.066-0.013,0.096-0.034
	c1.707-1.382,3.979-0.791,4.002-0.784c0.045,0.015,0.094,0.005,0.131-0.024c0.037-0.028,0.059-0.072,0.059-0.119
	c0-1.403,0.555-1.834,0.57-1.846c0.066-0.049,0.084-0.142,0.037-0.209c-0.047-0.066-0.141-0.086-0.209-0.037
	c-0.027,0.019-0.646,0.461-0.695,1.903c-0.584-0.116-2.4-0.345-3.928,0.777c-0.518-0.863-0.531-1.683-0.531-1.69
	c-0.001-0.063-0.04-0.119-0.101-0.142c-0.058-0.021-0.125-0.004-0.164,0.044c-0.331,0.393-0.775,0.591-1.321,0.591
	c-0.313,0-0.597-0.063-0.783-0.11c-0.915-0.234-1.403-0.395-1.407-0.396c-0.02-0.006-0.037-0.006-0.058-0.007
	c-0.085,0.005-0.169,0.008-0.252,0.008c-1.996,0-3.619-1.565-3.642-1.587c-0.438-0.385-0.83-0.441-0.846-0.443
	c-0.027-0.003-0.06,0.002-0.087,0.014c-0.14,0.066-0.288,0.103-0.442,0.103c-0.418,0-0.752-0.247-0.754-0.247
	c-0.095-0.091-0.127-0.222-0.099-0.398c0.075-0.463,0.552-1.047,0.81-1.17c0.08-0.037,0.154-0.057,0.223-0.057
	c0.431,0,0.605,0.799,0.605,0.807c0.006,0.022,0.017,0.045,0.03,0.063c0.222,0.276,0.733,0.534,1.045,0.578
	c2.134,0.301,3.304,0.894,3.315,0.899c0.066,0.035,0.156,0.013,0.195-0.057c0.363-0.6,1.754-0.76,2.549-0.76l0,0
	c0,0,0.002,0,0.003,0c0.04,0,0.077-0.018,0.106-0.044c0.45-0.452,0.99-0.681,1.604-0.681c0.705,0,1.264,0.31,1.268,0.312
	c0.049,0.024,0.105,0.026,0.15-0.002l0.752-0.44c0.047-0.027,0.076-0.078,0.074-0.133l-0.016-0.767
	c-0.004-0.054-0.031-0.103-0.078-0.128c-0.156-0.088-0.279-0.541-0.316-0.836c-0.008-0.062-0.055-0.114-0.117-0.127
	c-0.17-0.035-0.248-0.5-0.24-0.836c0.023,0.008,0.049,0.017,0.062,0.023c0.049,0.023,0.105,0.018,0.15-0.013
	c0.043-0.031,0.068-0.082,0.062-0.136c0,0-0.062-0.758-0.062-0.821c0-1.226,1.562-1.254,1.621-1.255
	c0.449,0.021,0.787,0.176,1.004,0.455c0.447,0.576,0.264,1.518,0.262,1.525c-0.012,0.061,0.014,0.121,0.062,0.154
	c0.051,0.035,0.115,0.034,0.166,0.001c0.031-0.021,0.055-0.032,0.068-0.038c0.006,0.039,0.006,0.104-0.004,0.157
	c-0.004,0.016-0.004,0.032-0.002,0.048c0.072,0.514-0.309,0.77-0.324,0.779c-0.043,0.027-0.068,0.076-0.068,0.127
	c0,0.307-0.094,0.511-0.096,0.513c-0.006,0.017-0.012,0.032-0.014,0.05l-0.043,0.424c-0.002,0.02,0,0.039,0.006,0.059
	c0.25,0.841,2.32,1.967,2.582,2.104c0.619,0.189,0.57,1.297,0.449,2.027c-0.002,0.001-0.004,0.002-0.004,0.002
	c-0.68,2.001-2.912,2.146-2.936,2.148c-0.037,0.002-0.07,0.018-0.096,0.041c-1.617,1.551-3.664,1.209-4.199,1.084
	c-0.01-0.01-0.016-0.022-0.027-0.03C25.119,20.496,24.138,20.41,24.097,20.407z M25.425,22.856c0.061-0.328,0.118-0.623,0.17-0.894
	c0.002-0.036,0.008-0.069,0.014-0.104c0.004-0.029,0.008-0.061,0.012-0.092c0.012-0.017,0.021-0.035,0.023-0.056
	c0.043-0.215,0.076-0.387,0.102-0.504c0.229,0.049,0.607,0.112,1.1,0.112c0.926,0,2.184-0.232,3.266-1.25
	c0.203-0.021,0.916-0.131,1.633-0.541c-0.488,0.597-0.986,1.25-1.186,1.795c-0.191,0.523-0.164,1.172-0.08,1.691h-5.096
	c0.002-0.009,0.006-0.017,0.008-0.024C25.398,22.951,25.41,22.911,25.425,22.856z M26.529,32.024
	c0.006,0.012,0.723,1.188,0.811,1.769c0.076,0.495,0.045,1.735-0.176,2.476c-0.227,0.76,0.186,2.354,0.381,3.117l0.039,0.149
	c0.049,0.133,0.16,0.551,0.033,0.731c-0.016,0.021-0.064,0.092-0.236,0.094c-0.016-0.002-0.361-0.045-0.762-0.045
	c-0.482,0-0.828,0.062-1.029,0.188c-0.157,0.019-0.808,0.093-1.274,0.093c-0.295,0-0.385-0.031-0.414-0.044
	c-0.012-0.004-0.038-0.021-0.047-0.021h-0.002c0,0,0.027-0.092,0.369-0.249c0.17-0.011,0.953-0.087,1.278-0.636
	c0.156-0.137,0.48-0.432,0.541-0.576c0.229-0.534,0.035-0.98-0.256-1.658c-0.197-0.453-0.44-1.018-0.652-1.807
	c-0.196-0.744-0.487-2.439-0.612-3.234c-0.03-0.184-0.039-0.471-0.051-0.775c-0.016-0.484-0.031-0.986-0.131-1.289l-0.059-0.179
	c-0.383-1.153-0.713-2.149,0.197-4.937c0,0,0.008-0.019,0.012-0.025l3.37,2.12c-0.113,0.534-0.682,3.122-1.34,4.597
	C26.5,31.931,26.504,31.981,26.529,32.024z M34.854,40.759c-0.035,0.001-0.088,0.001-0.154,0.001c-0.324,0-1.131-0.02-1.639-0.206
	c-0.018-0.006-0.033-0.01-0.053-0.01c-0.004,0-0.008,0.001-0.012,0.001c-0.002,0-0.104,0.008-0.25,0.008
	c-0.498,0-0.859-0.092-0.939-0.235c0.004-0.086,0.021-0.334,0.115-0.539c0.012-0.026,0.016-0.057,0.012-0.084
	c-0.012-0.072-0.279-1.795-1.148-2.957c-0.584-0.781-1.055-1.676-0.416-4.004c0.02-0.063-0.008-0.131-0.062-0.166
	c-0.01-0.008-0.938-0.627-1.49-2.76c-0.094-0.365-0.215-0.875-0.342-1.401c-0.096-0.396-0.191-0.794-0.279-1.15l3.109-1.894
	c0.172,0.455,0.336,0.918,0.418,1.236c0.107,0.358,0.344,1.336,0.186,2.655c-0.006,0.058-0.025,0.183-0.049,0.331
	c-0.039,0.246-0.088,0.562-0.111,0.782c-0.061,0.548-0.037,1.618,0.168,2.118c0.062,0.154,0.156,0.297,0.266,0.461
	c0.234,0.351,0.525,0.787,0.633,1.591c0.08,0.595,0.027,1.338-0.021,2.058c-0.047,0.68-0.092,1.321-0.025,1.822
	c0.115,0.92,0.623,1.6,1.537,2.032c0.301,0.073,0.561,0.212,0.576,0.274C34.879,40.724,34.875,40.735,34.854,40.759z M25.604,16.181
	c0.057,0.061,0.055,0.154-0.006,0.213c-0.027,0.026-0.066,0.041-0.104,0.041c-0.039,0-0.079-0.016-0.108-0.045
	c-0.044-0.048-1.099-1.107-2.592-0.027c-0.067,0.049-0.161,0.033-0.209-0.033c-0.049-0.067-0.034-0.161,0.033-0.21
	C24.326,14.883,25.59,16.167,25.604,16.181z M30.955,18.746c-0.043-0.07-0.021-0.162,0.049-0.206
	c1.137-0.711,0.629-2.311,0.623-2.326c-0.023-0.079,0.02-0.164,0.098-0.189c0.078-0.024,0.164,0.018,0.188,0.097
	c0.006,0.019,0.584,1.84-0.75,2.674c-0.023,0.017-0.053,0.022-0.08,0.022C31.033,18.817,30.984,18.792,30.955,18.746z
	 M30.863,31.047c-0.014,0-0.029-0.002-0.043-0.007c-0.08-0.023-0.125-0.107-0.1-0.188c0.516-1.707-0.355-3.369-0.363-3.387
	c-0.039-0.072-0.012-0.163,0.061-0.201c0.072-0.041,0.164-0.013,0.203,0.061c0.039,0.072,0.939,1.785,0.387,3.613
	C30.988,31.005,30.93,31.047,30.863,31.047z M25.812,27.265c0.072,0.039,0.1,0.131,0.061,0.202
	c-0.008,0.017-0.878,1.679-0.363,3.388c0.025,0.078-0.02,0.162-0.1,0.187c-0.014,0.005-0.028,0.007-0.043,0.007
	c-0.064,0-0.124-0.042-0.145-0.107c-0.553-1.828,0.348-3.541,0.387-3.613C25.648,27.253,25.74,27.224,25.812,27.265z M31.617,35.819
	c0.043,0.07,0.02,0.162-0.053,0.205c-0.023,0.015-0.049,0.021-0.076,0.021c-0.051,0-0.1-0.026-0.129-0.074
	c-0.822-1.384-0.402-2.385-0.383-2.427c0.031-0.075,0.119-0.107,0.195-0.078c0.076,0.033,0.111,0.121,0.078,0.197
	C31.236,33.7,30.879,34.574,31.617,35.819z M26.527,33.467c0.076-0.03,0.166,0.002,0.197,0.078c0.02,0.042,0.438,1.043-0.385,2.427
	c-0.027,0.049-0.076,0.074-0.129,0.074c-0.025,0-0.053-0.007-0.074-0.021c-0.072-0.041-0.096-0.133-0.055-0.205
	c0.738-1.244,0.383-2.118,0.367-2.154C26.418,33.588,26.453,33.5,26.527,33.467z"/>
</svg>
