<?xml version="1.0" encoding="utf-8"?>
<!-- Generator: Adobe Illustrator 16.0.4, SVG Export Plug-In . SVG Version: 6.00 Build 0)  -->
<!DOCTYPE svg PUBLIC "-//W3C//DTD SVG 1.1//EN" "http://www.w3.org/Graphics/SVG/1.1/DTD/svg11.dtd">
<svg version="1.1" id="Layer_1" xmlns="http://www.w3.org/2000/svg" xmlns:xlink="http://www.w3.org/1999/xlink" x="0px" y="0px"
	 width="100%" height="100%" style="fill: #9d9d9d;" viewBox="0 0 50 50" enable-background="new 0 0 50 50" xml:space="preserve">
<path d="M42.414,29.639c-0.19,0-0.346,0.154-0.346,0.346v3.949H35.78c0.045-0.078,0.087-0.156,0.141-0.229
	c0.179-0.251,0.757-0.737,1.104-0.957c3.073-1.96,3.68-3.227,3.79-3.544c0.459-0.735,0.544-1.453,0.247-2.132
	c-0.912-2.1-5.325-3.056-6.13-3.214c-1.396-1.538-2.893-1.475-3.886-1.434c-1.64,0.073-3.212-0.717-3.582-0.942
	c-0.021-0.172-0.049-0.574,0.028-1.281c0.131-0.143,0.319-0.422,0.403-0.89c0.287-0.127,0.435-0.499,0.53-0.837
	c0.166-0.243,0.524-0.848,0.305-1.278c-0.055-0.105-0.151-0.224-0.328-0.293c-0.004-0.867-0.271-3.192-2.972-3.689
	c-0.22-0.044-0.667-0.043-0.879-0.001c-2.706,0.498-2.972,2.824-2.975,3.69c-0.177,0.07-0.274,0.188-0.327,0.293
	c-0.221,0.431,0.135,1.035,0.302,1.278c0.097,0.338,0.244,0.71,0.531,0.837c0.086,0.468,0.274,0.746,0.404,0.889
	c0.076,0.708,0.049,1.112,0.027,1.282c-0.368,0.225-1.915,1.011-3.571,0.942v-5.588c0-0.652-0.602-1.232-1.688-1.65v-2.451
	c0-2.208-8.108-2.208-8.108,0v2.451c-1.089,0.418-1.688,0.997-1.688,1.65v11.296c0,0.729,0.735,1.364,2.07,1.788
	c0.021,0.006,0.04,0.006,0.061,0.011c0.469,0.619,1.423,1.578,3.365,2.817c0.354,0.228,0.927,0.705,1.107,0.958
	c0.053,0.073,0.095,0.151,0.14,0.229H7.931v-3.949c0-0.191-0.154-0.346-0.346-0.346c-0.192,0-0.347,0.154-0.347,0.346v8.591
	c0,0.191,0.153,0.346,0.347,0.346c0.19,0,0.346-0.154,0.346-0.346v-3.949h6.71c0.229,0.3,0.563,0.635,1.135,1.003
	c0.085,0.175,0.272,0.478,0.589,0.592c0.123,0.045,0.305,0.072,0.516-0.006c0.247,0.043,0.692,0.078,0.959-0.146
	c0.293-0.077,0.683-0.279,0.833-0.678c0.067-0.032,0.139-0.079,0.202-0.147c0.101-0.105,0.21-0.301,0.204-0.617h1.137
	c0.073,0.784,0.092,1.715-0.027,2.72c-0.023,0.189,0.112,0.362,0.303,0.386c0.014,0.002,0.027,0.002,0.042,0.002
	c0.173,0,0.322-0.129,0.343-0.306c0.125-1.038,0.11-1.991,0.038-2.802h1.01v2.328c0,0.191,0.155,0.347,0.347,0.347
	c0.192,0,0.348-0.154,0.348-0.347v-2.328h2.053v0.347c-0.18,0.177-0.362,0.271-0.545,0.272c-0.003,0-0.005,0-0.007,0
	c-0.334,0-0.604-0.28-0.609-0.288c-0.131-0.14-0.348-0.149-0.487-0.021c-0.144,0.128-0.153,0.348-0.023,0.488
	c0.048,0.054,0.483,0.516,1.121,0.516c0.002,0,0.003,0,0.005,0c0.19-0.001,0.371-0.048,0.547-0.128v0.104
	c0,0.191,0.155,0.348,0.347,0.348c0.192,0,0.348-0.155,0.348-0.348v-0.104c0.176,0.081,0.357,0.126,0.548,0.128c0,0,0.002,0,0.005,0
	c0.637,0,1.073-0.462,1.121-0.516c0.128-0.141,0.116-0.357-0.023-0.486c-0.141-0.129-0.358-0.119-0.487,0.02
	c-0.003,0.002-0.27,0.285-0.616,0.288c-0.185-0.001-0.365-0.097-0.546-0.271v-0.348h2.054v2.475c0,0.191,0.154,0.347,0.346,0.347
	c0.192,0,0.348-0.155,0.348-0.347v-2.475h0.963c-0.072,0.812-0.088,1.765,0.036,2.802c0.021,0.189,0.195,0.322,0.385,0.303
	c0.19-0.022,0.326-0.195,0.303-0.386c-0.119-1.005-0.1-1.936-0.025-2.72h1.138c-0.008,0.315,0.104,0.509,0.202,0.616
	c0.065,0.069,0.137,0.117,0.205,0.148c0.149,0.398,0.536,0.601,0.831,0.678c0.267,0.225,0.709,0.189,0.955,0.146
	c0.214,0.08,0.396,0.051,0.517,0.007c0.316-0.114,0.506-0.417,0.593-0.592c0.57-0.369,0.903-0.704,1.133-1.004h6.729v3.949
	c0,0.191,0.154,0.346,0.346,0.346c0.192,0,0.347-0.154,0.347-0.346v-8.591C42.761,29.793,42.606,29.639,42.414,29.639z M9.85,26.27
	c-1.029-0.311-1.696-0.764-1.696-1.161v-3.995c0.978,0.712,2.85,1.108,4.704,1.152v2.345C11.826,25.021,10.671,25.585,9.85,26.27z
	 M13.203,21.577c-3.129,0-5.051-0.929-5.051-1.596v-2.017c1.037,0.758,3.086,1.16,5.051,1.16s4.013-0.401,5.05-1.16v4.449
	c-0.936,0.016-2.103,0.228-3.216,1.457c-0.256,0.071-0.812,0.237-1.488,0.48v-2.425C13.549,21.732,13.395,21.577,13.203,21.577z
	 M9.842,15.493c0.012-0.05,0.014-0.101,0-0.154v-1.626c0.769,0.463,2.067,0.702,3.361,0.702c1.293,0,2.594-0.239,3.362-0.702v1.946
	c0,0.335-1.188,0.988-3.362,0.988s-3.361-0.653-3.361-0.988V15.493z M13.203,11.744c2.176,0,3.362,0.653,3.362,0.989
	c0,0.335-1.188,0.988-3.362,0.988s-3.361-0.653-3.361-0.988C9.842,12.397,11.028,11.744,13.203,11.744z M9.191,15.913
	c0.286,0.938,2.156,1.427,4.012,1.427c1.854,0,3.725-0.49,4.013-1.428c0.646,0.281,1.037,0.62,1.037,0.922
	c0,0.666-1.921,1.596-5.05,1.596s-5.051-0.93-5.051-1.596C8.152,16.531,8.543,16.194,9.191,15.913z M8.152,28.131v-1.894
	c0.293,0.216,0.674,0.41,1.141,0.576c-0.2,0.241-0.353,0.494-0.439,0.758c-0.156,0.473-0.087,0.953,0.178,1.41
	C8.397,28.679,8.152,28.36,8.152,28.131z M18.816,33.935c-0.242-0.457-0.676-1.068-1.369-1.363
	c-0.032-0.014-0.066-0.023-0.104-0.026l-0.677-0.063c-0.68-0.595-1.438-1.289-1.534-1.424c-0.136-0.192-0.244-0.449-0.37-0.747
	c-0.164-0.386-0.354-0.834-0.667-1.283c1.136,0.054,3.096,0.023,4.237-0.657c0.056,0.817,0.35,2.161,1.439,3.927
	c0.045,0.146,0.227,0.747,0.356,1.638H18.816z M26.988,33.935c0.021-0.022,0.039-0.04,0.047-0.047
	c0.128-0.142,0.116-0.357-0.023-0.486c-0.141-0.13-0.358-0.12-0.487,0.019c-0.003,0.003-0.273,0.288-0.608,0.288
	c-0.003,0-0.006,0-0.008-0.001c-0.184-0.001-0.365-0.097-0.546-0.271v-0.521c0.176,0.081,0.357,0.126,0.548,0.127
	c0,0,0.003,0,0.005,0c0.636,0,1.072-0.46,1.121-0.512c0.128-0.141,0.118-0.361-0.023-0.489c-0.141-0.129-0.36-0.119-0.489,0.023
	c-0.002,0.002-0.275,0.285-0.607,0.285h-0.003c-0.185,0-0.368-0.096-0.55-0.271v-0.605c0-0.192-0.154-0.348-0.348-0.348
	c-0.19,0-0.347,0.155-0.347,0.348v0.604c-0.18,0.175-0.362,0.271-0.545,0.272c-0.335,0-0.609-0.279-0.618-0.288
	c-0.129-0.14-0.347-0.149-0.486-0.021c-0.143,0.129-0.152,0.349-0.022,0.49c0.048,0.052,0.484,0.512,1.121,0.512
	c0.002,0,0.003,0,0.005,0c0.19-0.001,0.371-0.047,0.547-0.128v0.521c-0.18,0.177-0.362,0.271-0.545,0.272
	c-0.003,0.001-0.006,0.001-0.008,0.001c-0.332,0-0.598-0.276-0.608-0.288c-0.131-0.14-0.348-0.149-0.487-0.021
	c-0.144,0.128-0.153,0.348-0.023,0.49c0.006,0.008,0.023,0.024,0.046,0.047h-0.426v-0.827c0-1.461,1.076-2.649,2.398-2.649
	c1.323,0,2.4,1.188,2.4,2.649v0.827H26.988z M31.167,33.935h-1.315c0.132-0.892,0.312-1.492,0.358-1.638
	c1.104-1.79,1.392-3.146,1.44-3.96c1.22,0.763,3.115,0.78,4.22,0.712c-0.306,0.442-0.492,0.885-0.652,1.265
	c-0.125,0.296-0.232,0.552-0.367,0.743c-0.099,0.139-0.842,0.819-1.533,1.426l-0.681,0.063c-0.037,0.003-0.069,0.013-0.104,0.026
	C31.84,32.866,31.408,33.478,31.167,33.935z M33.75,35.101c-0.062,0.04-0.112,0.099-0.14,0.169c-0.039,0.103-0.148,0.271-0.229,0.3
	c-0.008,0.003-0.021,0.009-0.069-0.019c-0.075-0.042-0.163-0.053-0.247-0.034c-0.181,0.041-0.42,0.049-0.447,0.053
	c-0.054-0.086-0.142-0.145-0.241-0.16c-0.003,0-0.402-0.074-0.433-0.335c-0.021-0.175-0.154-0.307-0.33-0.307
	c-0.006-0.006-0.02-0.038-0.021-0.103c0.014-0.034,0.036-0.092,0.065-0.159c0.04-0.045,0.063-0.101,0.075-0.163
	c0.175-0.354,0.503-0.87,1.022-1.113l0.734-0.07c0.072-0.006,0.142-0.036,0.196-0.083c0.356-0.312,1.534-1.348,1.729-1.623
	c0.176-0.252,0.304-0.553,0.438-0.872c0.229-0.544,0.491-1.162,1.069-1.709c0.11-0.104,0.14-0.267,0.074-0.403
	c-0.067-0.136-0.215-0.213-0.362-0.19c-0.039,0.005-3.9,0.553-5.1-0.946c-0.07-0.087-0.176-0.129-0.281-0.126
	c0.079-0.3,0.137-0.612,0.137-0.94c0-0.191-0.155-0.348-0.347-0.348s-0.347,0.155-0.347,0.348c0,1.466-1.054,2.658-2.351,2.658
	c-1.295,0-2.351-1.191-2.351-2.658v-1.554c0-0.191-0.154-0.347-0.347-0.347c-0.19,0-0.348,0.155-0.348,0.347v1.554
	c0,1.849,1.366,3.352,3.044,3.352c1.115,0,2.082-0.672,2.612-1.661c0.019,0.596-0.111,1.992-1.364,4.01
	c-0.014,0.022-0.024,0.046-0.031,0.07c-0.021,0.053-0.262,0.771-0.418,1.897h-1.041v-0.827c0-1.843-1.389-3.342-3.094-3.342
	c-1.704,0-3.093,1.499-3.093,3.342v0.827H20.83c-0.158-1.126-0.4-1.846-0.418-1.897c-0.009-0.023-0.02-0.048-0.033-0.07
	c-1.338-2.154-1.396-3.601-1.358-4.117c0.517,1.047,1.51,1.769,2.665,1.769c1.679,0,3.045-1.503,3.045-3.352v-1.554
	c0-0.191-0.155-0.347-0.349-0.347c-0.189,0-0.346,0.155-0.346,0.347v1.554c0,1.466-1.055,2.658-2.352,2.658
	c-1.296,0-2.351-1.191-2.351-2.658c0-0.191-0.154-0.348-0.346-0.348c-0.192,0-0.347,0.155-0.347,0.348
	c0,0.333,0.058,0.646,0.14,0.949c-0.143-0.03-0.29,0.024-0.368,0.153c-0.68,1.118-3.907,1.034-5.09,0.907
	c-0.154-0.019-0.29,0.064-0.353,0.2c-0.062,0.135-0.029,0.294,0.077,0.396c0.579,0.547,0.84,1.164,1.07,1.708
	c0.135,0.319,0.264,0.621,0.441,0.875c0.192,0.273,1.373,1.311,1.729,1.621c0.055,0.047,0.123,0.077,0.195,0.083l0.731,0.07
	c0.734,0.343,1.094,1.233,1.167,1.436c-0.002,0.064-0.011,0.097-0.005,0.103c-0.175,0-0.323,0.131-0.343,0.305
	c-0.032,0.266-0.435,0.337-0.437,0.337c-0.101,0.016-0.152,0.037-0.206,0.124c-0.065,0.032-0.301,0.024-0.483-0.017
	c-0.081-0.019-0.172-0.007-0.247,0.034c-0.046,0.026-0.062,0.021-0.068,0.019c-0.079-0.028-0.186-0.194-0.228-0.299
	c-0.026-0.07-0.075-0.13-0.14-0.17c-0.889-0.558-1.125-0.979-1.354-1.387c-0.08-0.144-0.158-0.279-0.253-0.413
	c-0.259-0.363-0.931-0.903-1.296-1.138c-3.126-1.994-3.508-3.185-3.509-3.188c-0.013-0.05-0.034-0.095-0.065-0.134
	c-0.281-0.356-0.361-0.701-0.246-1.053c0.506-1.532,4.363-2.886,5.809-3.279c0.065-0.018,0.125-0.055,0.17-0.106
	c1.206-1.379,2.486-1.325,3.418-1.288c2.034,0.087,3.955-0.984,4.154-1.176c0.048-0.044,0.087-0.108,0.104-0.174h0.002
	c0.016-0.053,0.141-0.55-0.005-1.771c-0.01-0.089-0.063-0.178-0.134-0.235c-0.011-0.009-0.254-0.214-0.292-0.818
	c-0.008-0.139-0.1-0.259-0.229-0.306c-0.054-0.019-0.107-0.023-0.162-0.017c-0.034-0.065-0.084-0.183-0.14-0.387
	c-0.011-0.04-0.029-0.078-0.054-0.112c-0.158-0.222-0.296-0.531-0.317-0.574c0,0,0.246,0.001,0.36-0.128
	c0.065-0.074,0.097-0.173,0.085-0.271c-0.014-0.113-0.294-2.759,2.401-3.255c0.153-0.03,0.459-0.03,0.621,0
	c2.678,0.493,2.411,3.143,2.398,3.256c-0.011,0.098,0.021,0.196,0.086,0.27c0.064,0.074,0.159,0.116,0.259,0.116
	c0.028,0,0.049,0.002,0.062,0.001c-0.015,0.122-0.141,0.388-0.28,0.584c-0.024,0.034-0.043,0.072-0.053,0.112
	c-0.057,0.205-0.105,0.322-0.141,0.387c-0.053-0.008-0.109-0.002-0.162,0.017c-0.132,0.046-0.222,0.167-0.229,0.306
	c-0.035,0.604-0.278,0.809-0.279,0.811c-0.08,0.056-0.132,0.145-0.144,0.241c-0.148,1.222-0.021,1.721-0.006,1.773h0.001
	c0.021,0.065,0.059,0.128,0.104,0.172c0.2,0.192,2.117,1.266,4.155,1.176c0.938-0.039,2.214-0.091,3.415,1.287
	c0.053,0.06,0.123,0.099,0.2,0.114c1.358,0.245,5.041,1.232,5.736,2.832c0.205,0.474,0.133,0.971-0.221,1.521
	c-0.021,0.027-0.035,0.066-0.044,0.097c-0.005,0.013-0.384,1.204-3.511,3.196c-0.361,0.229-1.031,0.768-1.295,1.138
	c-0.098,0.134-0.175,0.271-0.256,0.415C34.873,34.123,34.637,34.545,33.75,35.101z M6.893,30.826v6.907
	c0,0.19-0.153,0.347-0.347,0.347c-0.19,0-0.347-0.155-0.347-0.347v-6.907c0-0.191,0.155-0.346,0.347-0.346
	C6.738,30.48,6.893,30.635,6.893,30.826z M43.801,30.826v6.907c0,0.19-0.154,0.347-0.347,0.347s-0.347-0.155-0.347-0.347v-6.907
	c0-0.191,0.153-0.346,0.347-0.346C43.646,30.48,43.801,30.635,43.801,30.826z M5.854,32.849v2.862c0,0.192-0.154,0.348-0.347,0.348
	c-0.191,0-0.347-0.155-0.347-0.348v-2.862c0-0.192,0.154-0.348,0.347-0.348C5.698,32.501,5.854,32.656,5.854,32.849z M44.84,32.849
	v2.862c0,0.192-0.154,0.348-0.347,0.348c-0.191,0-0.347-0.155-0.347-0.348v-2.862c0-0.192,0.154-0.348,0.347-0.348
	S44.84,32.656,44.84,32.849z M29.189,27.469c0,0.222-0.197,0.4-0.439,0.4c-0.241,0-0.438-0.179-0.438-0.4
	c0-0.221,0.195-0.399,0.438-0.399S29.189,27.248,29.189,27.469z M21.728,27.469c0,0.222-0.196,0.4-0.438,0.4
	c-0.243,0-0.437-0.179-0.437-0.4c0-0.221,0.192-0.399,0.437-0.399C21.53,27.069,21.728,27.248,21.728,27.469z M25.391,37.293
	c0,0.23-0.168,0.412-0.374,0.412c-0.208,0-0.378-0.182-0.378-0.412c0-0.225,0.17-0.41,0.378-0.41
	C25.223,36.883,25.391,37.068,25.391,37.293z M37.095,27.683c-0.064,0.054-0.144,0.08-0.222,0.08c-0.1,0-0.198-0.042-0.267-0.125
	c-1.122-1.354-3.308-1.265-3.326-1.261c-0.211,0.007-0.354-0.139-0.363-0.33c-0.01-0.189,0.138-0.353,0.328-0.362
	c0.105-0.004,2.554-0.107,3.895,1.51C37.262,27.342,37.242,27.561,37.095,27.683z M16.987,26.012
	c-0.005,0.191-0.178,0.361-0.357,0.335c-0.019,0-2.212-0.05-3.301,1.316c-0.067,0.086-0.169,0.131-0.271,0.131
	c-0.074,0-0.151-0.024-0.216-0.076c-0.148-0.119-0.175-0.337-0.055-0.486c1.309-1.643,3.756-1.582,3.864-1.577
	C16.844,25.66,16.992,25.819,16.987,26.012z"/>
</svg>
