<?xml version="1.0" encoding="utf-8"?>
<!-- Generator: Adobe Illustrator 16.0.4, SVG Export Plug-In . SVG Version: 6.00 Build 0)  -->
<!DOCTYPE svg PUBLIC "-//W3C//DTD SVG 1.1//EN" "http://www.w3.org/Graphics/SVG/1.1/DTD/svg11.dtd">
<svg version="1.1" id="Layer_1" xmlns="http://www.w3.org/2000/svg" xmlns:xlink="http://www.w3.org/1999/xlink" x="0px" y="0px"
	 width="100%" height="100%" style="fill: #9d9d9d;" viewBox="0 0 50 50" enable-background="new 0 0 50 50" xml:space="preserve">
<path d="M36.384,30.959c0.081,0.209,0.073,0.439-0.021,0.643l-1.627,3.457c-0.14,0.295-0.432,0.467-0.737,0.467
	c-0.116,0-0.233-0.023-0.346-0.076c-0.407-0.191-0.581-0.676-0.391-1.082l1.264-2.684L16.854,24.46l-3.022,10.278
	c-0.104,0.355-0.428,0.584-0.78,0.584c-0.076,0-0.153-0.012-0.23-0.033c-0.43-0.127-0.678-0.578-0.55-1.01l4.068-13.831
	c0.126-0.432,0.574-0.678,1.01-0.552c0.431,0.127,0.678,0.578,0.55,1.009l-0.584,1.986l18.62,7.608
	C36.141,30.586,36.303,30.752,36.384,30.959z M39.703,19.236c-0.348-0.287-0.859-0.236-1.145,0.109l-2.857,3.465l-2.834-2.17
	c-0.175-0.131-0.398-0.19-0.617-0.156l-8.918,1.355l-4.588-5.16c-0.265-0.299-0.709-0.362-1.045-0.146l-7.322,4.679
	c-0.379,0.242-0.49,0.744-0.248,1.123c0.243,0.381,0.748,0.489,1.124,0.246l6.737-4.303l4.421,4.973
	c0.183,0.205,0.458,0.308,0.73,0.264l9.015-1.371l3.183,2.436c0.147,0.111,0.321,0.166,0.494,0.166c0.235,0,0.468-0.102,0.628-0.296
	l3.356-4.067C40.1,20.037,40.05,19.522,39.703,19.236z M35.626,20.169c1.573,0,2.849-1.273,2.849-2.848
	c0-1.572-1.274-2.848-2.849-2.848s-2.848,1.275-2.848,2.848C32.778,18.895,34.053,20.169,35.626,20.169z"/>
</svg>
