<?xml version="1.0" encoding="utf-8"?>
<!-- Generator: Adobe Illustrator 16.0.4, SVG Export Plug-In . SVG Version: 6.00 Build 0)  -->
<!DOCTYPE svg PUBLIC "-//W3C//DTD SVG 1.1//EN" "http://www.w3.org/Graphics/SVG/1.1/DTD/svg11.dtd">
<svg version="1.1" id="Layer_1" xmlns="http://www.w3.org/2000/svg" xmlns:xlink="http://www.w3.org/1999/xlink" x="0px" y="0px"
	 width="100%" height="100%" style="fill: #9d9d9d;" viewBox="0 0 50 50" enable-background="new 0 0 50 50" xml:space="preserve">
<path d="M26.37,34.609c-1.029,0.706-3.209,1.141-5.505,1.115c-3.654-0.045-5.972-1.16-5.963-1.908l0.026-2.1
	c1.278,0.875,3.628,1.348,5.969,1.376c0.002,0,0.004,0,0.006,0c0.273,0,0.497-0.22,0.5-0.494l0.075-6.163
	c0.001-0.132-0.049-0.26-0.142-0.354c-0.093-0.096-0.219-0.149-0.352-0.151c-3.653-0.044-5.971-1.159-5.962-1.908l0.028-2.25
	c1.278,0.875,3.628,1.349,5.969,1.376c0.078,0.001,0.155,0.001,0.231,0.001c1.703,0,3.304-0.23,4.533-0.656
	c0.524-0.183,0.922-0.382,1.237-0.587l-0.055,4.436c-0.003,0.276,0.219,0.503,0.494,0.506c0.002,0,0.004,0,0.006,0
	c0.273,0,0.497-0.22,0.5-0.494l0.073-5.955l0,0l0,0c0.007-0.58-0.357-1.393-2.003-2.062l0.035-2.892l0,0l0,0
	c0.017-1.381-2.468-2.134-4.932-2.165l-0.158-0.001c-2.311,0-4.805,0.641-4.823,2.044l0,0l-0.035,2.89
	c-1.313,0.499-2.043,1.205-2.054,2.014l0,0l-0.046,3.78l0,0c0,0.001,0,0.001,0,0.002l-0.12,9.793c-0.022,1.86,3.479,2.877,6.95,2.92
	c0.076,0.001,0.151,0.001,0.227,0.001c2.458,0,4.688-0.49,5.856-1.292c0.228-0.156,0.286-0.467,0.129-0.695
	C26.909,34.511,26.598,34.454,26.37,34.609z M20.472,26.918l-0.063,5.163c-3.364-0.135-5.472-1.182-5.463-1.896l0,0l0.057-4.633
	C16.19,26.365,18.301,26.833,20.472,26.918z M17.116,18.661c0.013-0.062,0.013-0.123,0.002-0.188l0.022-1.821
	c0.946,0.532,2.449,0.819,3.947,0.838l0.158,0.002c1.4,0,2.865-0.237,3.808-0.734l-0.027,2.193c-0.004,0.33-1.348,1.087-3.971,1.056
	c-1.134-0.014-2.19-0.184-2.976-0.478c-0.707-0.264-0.968-0.555-0.967-0.676L17.116,18.661z M20.98,14.28l0.146,0.001
	c2.611,0.032,3.948,0.822,3.944,1.152c-0.004,0.316-1.31,1.058-3.824,1.058L21.1,16.49c-2.61-0.031-3.947-0.821-3.943-1.152
	C17.161,15.022,18.466,14.28,20.98,14.28z M16.193,19.263c0.152,0.395,0.561,0.84,1.537,1.205c0.891,0.333,2.067,0.525,3.313,0.54
	c0.052,0,0.104,0.001,0.155,0.001c2.15,0,4.278-0.553,4.729-1.631c0.808,0.376,1.112,0.766,1.109,1.012l0,0
	c-0.003,0.284-0.42,0.758-1.583,1.161c-1.178,0.408-2.763,0.619-4.424,0.6c-3.654-0.045-5.972-1.16-5.963-1.906
	C15.071,19.996,15.385,19.618,16.193,19.263z M35.504,26.015c0.193,0.198,0.189,0.514-0.009,0.707
	c-0.097,0.095-0.223,0.142-0.349,0.142c-0.13,0-0.26-0.05-0.358-0.15l-2.372-2.432l-6.389,6.235l2.372,2.431
	c0.192,0.198,0.188,0.515-0.009,0.707c-0.098,0.096-0.224,0.143-0.35,0.143c-0.13,0-0.26-0.05-0.357-0.151l-5.441-5.577
	c-0.193-0.197-0.189-0.514,0.009-0.707c0.198-0.191,0.514-0.188,0.707,0.01l2.372,2.431l6.39-6.235l-2.372-2.43
	c-0.193-0.198-0.189-0.514,0.009-0.707c0.198-0.192,0.514-0.189,0.707,0.009L35.504,26.015z M26.166,34.061l-4.375-4.483
	c-0.193-0.198-0.189-0.515,0.009-0.707c0.198-0.192,0.514-0.189,0.707,0.009l4.375,4.483c0.193,0.198,0.189,0.515-0.009,0.707
	c-0.097,0.096-0.223,0.143-0.349,0.143C26.396,34.212,26.266,34.161,26.166,34.061z M35.946,25.216
	c-0.097,0.095-0.223,0.142-0.349,0.142c-0.131,0-0.261-0.05-0.358-0.15l-4.375-4.483c-0.193-0.198-0.189-0.514,0.009-0.707
	c0.198-0.192,0.515-0.188,0.707,0.009l4.375,4.483C36.147,24.707,36.145,25.022,35.946,25.216z M22.803,31.15l1.814,1.859
	c0.193,0.197,0.189,0.514-0.009,0.707c-0.097,0.095-0.223,0.142-0.349,0.142c-0.13,0-0.26-0.05-0.358-0.15l-1.814-1.859
	c-0.193-0.197-0.189-0.514,0.009-0.707C22.293,30.949,22.61,30.953,22.803,31.15z M33.128,21.074
	c-0.192-0.197-0.188-0.514,0.01-0.706c0.197-0.192,0.514-0.189,0.707,0.009l1.814,1.859c0.193,0.198,0.189,0.515-0.009,0.707
	c-0.097,0.096-0.224,0.143-0.35,0.143c-0.13,0-0.26-0.05-0.357-0.151L33.128,21.074z"/>
</svg>
