<?xml version="1.0" encoding="utf-8"?>
<!-- Generator: Adobe Illustrator 16.0.4, SVG Export Plug-In . SVG Version: 6.00 Build 0)  -->
<!DOCTYPE svg PUBLIC "-//W3C//DTD SVG 1.1//EN" "http://www.w3.org/Graphics/SVG/1.1/DTD/svg11.dtd">
<svg version="1.1" id="Layer_1" xmlns="http://www.w3.org/2000/svg" xmlns:xlink="http://www.w3.org/1999/xlink" x="0px" y="0px"
	 width="100%" height="100%" style="fill: #9d9d9d;" viewBox="0 0 50 50" enable-background="new 0 0 50 50" xml:space="preserve">
<path d="M38.479,35.159c-0.392,0.118-0.802-0.101-0.919-0.49l-2.404-7.899l-5.908,0.549l-8.728,4.01l-1.127,2.415l4.079,0.089
	l2.362-4.162c0.2-0.354,0.65-0.48,1.004-0.275c0.354,0.199,0.479,0.649,0.278,1.004l-2.579,4.545
	c-0.131,0.23-0.376,0.373-0.641,0.373c-0.005,0-0.011,0-0.016,0l-5.648-0.123c-0.249-0.006-0.479-0.137-0.61-0.35
	c-0.131-0.211-0.147-0.475-0.042-0.699l1.719-3.685c0.074-0.158,0.202-0.286,0.36-0.358l7.814-3.588l-5.798-3.459
	c-0.072-0.043-0.137-0.1-0.19-0.164l-5.772-7c-0.259-0.312-0.214-0.777,0.1-1.037c0.313-0.261,0.778-0.215,1.037,0.1l5.69,6.902
	l6.685,3.985l6.393-0.593c0.339-0.018,0.67,0.184,0.772,0.52l2.578,8.475C39.086,34.629,38.867,35.04,38.479,35.159z M14.008,27.824
	c-1.661,0-3.008,1.347-3.008,3.008c0,1.662,1.347,3.009,3.008,3.009c1.662,0,3.009-1.347,3.009-3.009
	C17.017,29.171,15.67,27.824,14.008,27.824z"/>
</svg>
