<?xml version="1.0" encoding="utf-8"?>
<!-- Generator: Adobe Illustrator 16.0.4, SVG Export Plug-In . SVG Version: 6.00 Build 0)  -->
<!DOCTYPE svg PUBLIC "-//W3C//DTD SVG 1.1//EN" "http://www.w3.org/Graphics/SVG/1.1/DTD/svg11.dtd">
<svg version="1.1" id="Layer_1" xmlns="http://www.w3.org/2000/svg" xmlns:xlink="http://www.w3.org/1999/xlink" x="0px" y="0px"
	 width="100%" height="100%" style="fill: #9d9d9d;" viewBox="0 0 50 50" enable-background="new 0 0 50 50" xml:space="preserve">
<path d="M24.224,26.688c0.096,4.031-3.107,7.392-7.142,7.487c-0.058,0.001-0.115,0.002-0.173,0.002c-3.956,0-7.221-3.17-7.314-7.145
	c-0.07-3.013,1.756-5.805,4.545-6.947c0.252-0.103,0.547,0.018,0.651,0.273s-0.019,0.547-0.272,0.652
	c-2.408,0.986-3.985,3.397-3.924,5.998c0.082,3.481,2.99,6.285,6.465,6.166c3.48-0.083,6.246-2.982,6.164-6.464
	c-0.007-0.275,0.213-0.505,0.488-0.512C24.009,26.219,24.217,26.411,24.224,26.688z M15.484,26.896
	c-0.012-0.61,0.361-1.137,0.894-1.353l-0.129-5.485c-0.007-0.276,0.212-0.505,0.487-0.512c0.275,0.019,0.506,0.212,0.513,0.488
	l0.129,5.493c0.55,0.197,0.94,0.703,0.955,1.299c0.01,0.379-0.13,0.741-0.394,1.016c-0.263,0.275-0.615,0.433-0.996,0.441
	c-0.004,0-0.028,0-0.032,0C16.132,28.284,15.506,27.674,15.484,26.896z M17.333,26.851c-0.005-0.229-0.194-0.415-0.423-0.415
	c-0.244,0.006-0.43,0.2-0.426,0.436c0.007,0.227,0.197,0.413,0.427,0.413v0.5l0.01-0.5c0.112-0.002,0.218-0.049,0.295-0.131
	C17.294,27.07,17.335,26.963,17.333,26.851z M34.133,28.133c-5.155-2.298-8.243,0.934-8.274,0.967
	c-0.188,0.201-0.176,0.519,0.025,0.707c0.098,0.089,0.219,0.134,0.342,0.134c0.133,0,0.268-0.055,0.365-0.16
	c0.025-0.027,2.625-2.742,7.137-0.733c0.248,0.112,0.547,0,0.66-0.253C34.499,28.541,34.386,28.245,34.133,28.133z M42.119,28.48
	c0.262,0.714,0.252,1.365-0.027,1.939c-0.514,1.057-1.764,1.399-1.815,1.414c-3.18,1.356-5.73,1.792-7.697,1.792
	c-2.625,0-4.208-0.776-4.854-1.181c-1.863,1.289-3.893,0.686-3.984,0.659c-0.098-0.03-0.17-0.091-0.229-0.164
	c-1.621,1.804-3.945,2.97-6.557,3.031l-0.219,0.002c-4.903,0-8.987-3.991-9.104-8.897c-0.058-2.433,0.837-4.742,2.517-6.502
	c1.396-1.462,3.197-2.391,5.16-2.7l-0.022-1.023c-0.533-0.277-0.849-0.712-0.858-1.209c-0.012-0.456,0.247-0.891,0.707-1.193
	c0.396-0.259,0.916-0.409,1.465-0.422c0.549-0.008,1.073,0.112,1.48,0.353c0.477,0.281,0.754,0.703,0.766,1.159
	c0.012,0.495-0.281,0.945-0.8,1.247l0.025,1.077c1.153,0.173,2.239,0.563,3.216,1.134l0.426-0.552
	c-0.122-0.361-0.082-0.719,0.123-0.984c0.211-0.274,0.557-0.411,0.967-0.368c0.32,0.032,0.658,0.174,0.95,0.4
	c0.683,0.529,0.908,1.339,0.517,1.846c-0.205,0.265-0.553,0.389-0.92,0.369l-0.403,0.522c0.774,0.725,1.421,1.583,1.907,2.535
	c0.929-0.335,4.156-1.172,6.253,2.346c0.709-0.32,2.137-0.82,3.547-0.484c-0.459-1.992,0.037-4.148,0.281-5.007
	c-1.383,0.174-2.834,0.108-3.51,0.008c-0.184-0.027-0.416-0.21-0.478-0.387c-0.022-0.066-0.058-0.162-0.026-0.318
	c-0.221,0.014-0.439-0.009-0.617-0.098c-0.096-0.047-0.35-0.173-0.492-1.044c-0.082-0.498-0.096-1.174,0.301-1.57
	c0.807-0.808,5.019-1.925,6.048-1.24c1.26,0.84,2.63,2.968,3.815,4.897l0.104,0.172C43.017,24.807,42.394,27.686,42.119,28.48z
	 M22.689,18.816l-0.565,0.733c0.019,0.013,0.036,0.026,0.056,0.04l0.562-0.731c0.127-0.165,0.341-0.232,0.542-0.173
	c0.129,0.04,0.202,0.029,0.219,0.021c-0.03-0.007-0.11-0.227-0.362-0.422c-0.22-0.17-0.424-0.206-0.513-0.197
	c0.021,0.014,0.039,0.077,0.091,0.16C22.829,18.424,22.816,18.651,22.689,18.816z M16.308,17.772
	c0.072-0.003,0.146-0.014,0.219-0.016l0.219-0.002c0.109,0,0.215,0.012,0.322,0.016l-0.029-1.278
	c-0.005-0.208,0.12-0.398,0.312-0.476c0.344-0.139,0.496-0.332,0.494-0.452c-0.003-0.103-0.104-0.223-0.272-0.322
	c-0.245-0.145-0.601-0.224-0.949-0.214c-0.358,0.008-0.702,0.103-0.938,0.258c-0.164,0.107-0.261,0.232-0.258,0.334
	c0.004,0.121,0.165,0.307,0.516,0.429c0.197,0.068,0.332,0.252,0.336,0.46L16.308,17.772z M24.851,26.673
	c-0.104-4.367-3.74-7.92-8.105-7.92l-0.195,0.002c-2.166,0.051-4.182,0.942-5.678,2.509c-1.495,1.567-2.291,3.623-2.239,5.789
	c0.104,4.368,3.74,7.922,8.104,7.922l0.195-0.002C21.402,34.867,24.955,31.145,24.851,26.673z M41.134,28.26
	c0.01-0.021,1.19-2.671-1.904-7.696l-0.106-0.173c-0.815-1.328-2.335-3.8-3.517-4.588c-0.575-0.312-4.2,0.527-4.787,1.115
	c-0.104,0.131-0.047,0.697,0.046,1.014c0.224-0.022,0.655-0.153,1.008-0.317c0.219-0.104,0.478-0.035,0.617,0.16
	c0.141,0.194,0.122,0.461-0.041,0.636c-0.087,0.092-0.177,0.194-0.255,0.292c1.203,0.08,3.162,0.02,4.283-0.477
	c0.25-0.112,0.549,0.002,0.66,0.255c0.111,0.252-0.003,0.548-0.256,0.66c-0.262,0.116-0.559,0.205-0.867,0.282
	c-0.002,0.047-0.002,0.094-0.019,0.141c-0.011,0.033-1.097,3.287-0.118,5.615c0.877,0.607,1.512,1.614,1.883,3.018
	c0.07,0.267-0.089,0.541-0.354,0.611c-0.044,0.011-0.087,0.017-0.128,0.017c-0.223,0-0.424-0.148-0.483-0.372
	c-0.375-1.419-1.034-2.334-1.958-2.719c-1.643-0.684-3.664,0.463-3.686,0.474c-0.116,0.069-0.256,0.086-0.391,0.047
	c-0.131-0.038-0.24-0.128-0.304-0.25c-1.707-3.293-4.392-2.622-5.2-2.327c0.353,0.932,0.567,1.93,0.593,2.974
	c0.047,2.058-0.602,3.969-1.722,5.522c0.387,0.094,1.925,0.369,3.269-0.729c0.185-0.151,0.451-0.151,0.637,0.002
	c0.033,0.028,3.746,2.928,11.917-0.554c0.073-0.025,0.935-0.27,1.243-0.912c0.172-0.354,0.146-0.791-0.071-1.3
	C41.063,28.544,41.069,28.392,41.134,28.26z"/>
</svg>
