<?xml version="1.0" encoding="utf-8"?>
<!-- Generator: Adobe Illustrator 16.0.4, SVG Export Plug-In . SVG Version: 6.00 Build 0)  -->
<!DOCTYPE svg PUBLIC "-//W3C//DTD SVG 1.1//EN" "http://www.w3.org/Graphics/SVG/1.1/DTD/svg11.dtd">
<svg version="1.1" id="Capa_1" xmlns="http://www.w3.org/2000/svg" xmlns:xlink="http://www.w3.org/1999/xlink" x="0px" y="0px"
	 width="100%" height="100%" style="fill: #9d9d9d;" viewBox="0 0 64 64" enable-background="new 0 0 64 64" xml:space="preserve">
<g>
	<path d="M45.077,20.918c-0.154-0.676-0.632-1.26-1.122-1.725c-0.864-0.818-1.977-1.418-3.084-1.838
		c-0.721-0.268-1.444-0.522-2.18-0.745c-0.131-0.04-0.293,0.002-0.389,0.103c0.105-0.112,0.082-0.046-0.088-0.034
		c-0.186,0.013-0.371,0.01-0.555,0.008c-0.408-0.005-0.817-0.027-1.225-0.048c-0.776-0.04-1.525-0.07-2.289-0.243
		c-0.181-0.041-0.359-0.088-0.537-0.139c-0.073-0.021-0.146-0.044-0.218-0.069c-0.014-0.008-0.014-0.008-0.032-0.019
		c-0.215-0.126-0.596-0.034-0.827-0.02c-0.908,0.054-1.81,0.116-2.712,0.239c-0.709,0.097-1.414,0.208-2.129,0.255
		c-0.676,0.045-1.356,0.002-2.032-0.015c-1.44-0.037-2.793,0.258-4.189,0.578c-1.386,0.317-2.763,0.676-4.138,1.039
		c-0.682,0.18-1.368,0.35-2.046,0.546c-0.666,0.192-1.277,0.562-1.905,0.847c-0.201,0.091-0.242,0.372-0.144,0.547
		c0.153,0.271,0.556,0.318,0.83,0.369c0.566,0.106,1.147,0.151,1.722,0.14c0.694-0.013,1.286-0.27,1.949-0.445
		c0.918-0.243,1.874-0.298,2.819-0.322c1.877-0.048,3.759-0.258,5.636-0.236c0.952,0.011,1.902,0.11,2.848,0.205
		c0.789,0.079,1.599,0.111,2.386,0.22c-0.086,0.623-0.215,1.234-0.456,1.82c-0.3,0.729-0.427,1.485-0.466,2.269
		c-0.035,0.707,0.021,1.416,0.031,2.123c0.01,0.745-0.114,1.465-0.186,2.203c-0.047,0.482-0.047,0.969-0.127,1.447
		c-0.075,0.448-0.226,1.098-0.526,1.441c-0.594,0.681-1.456,1.187-2.184,1.71c-0.976,0.702-1.907,1.45-2.812,2.243
		c-0.508,0.444-1.012,0.896-1.529,1.331c-0.566,0.477-1.195,0.865-1.766,1.331c-0.819,0.666-1.555,1.877-1.033,2.937
		c0.477,0.969,1.577,1.357,2.588,1.441c1.288,0.107,2.671-0.033,3.954-0.166c1.372-0.143,2.652-0.533,3.992-0.82
		c0.713-0.152,1.372-0.275,1.762,0.438c0.22,0.402,0.353,0.846,0.567,1.252c0.268,0.503,0.408,0.968,0.511,1.531
		c0.257,1.418,0.349,2.848,0.36,4.285c0.013,1.479,0.269,2.939,0.272,4.416c0.003,0.957-0.077,1.961-0.551,2.81
		c-0.231,0.415-0.581,0.733-0.981,0.979c-0.252,0.155-0.549,0.213-0.799,0.359c-0.193,0.113-0.276,0.332-0.382,0.516
		c-0.161,0.281,0.05,0.575,0.345,0.603c0.73,0.065,1.457,0.135,2.179,0.261c0.511,0.089,1.017,0.346,1.545,0.289
		c0.93-0.1,0.931-1.171,0.974-1.885c0.097-1.604,0.59-3.18,0.957-4.735c0.347-1.465,0.64-2.948,0.597-4.46
		c-0.02-0.729-0.184-1.421-0.309-2.135c-0.135-0.77-0.018-1.598,0.074-2.365c0.188-1.57,0.51-3.115,0.729-4.68
		c0.21-1.497,0.128-2.928-0.202-4.399c-0.146-0.653-0.321-1.298-0.489-1.944c0.598-0.643,1.173-1.253,1.663-1.997
		c0.515-0.781,1.033-1.561,1.549-2.342c1.084-1.644,2.164-3.294,3.15-4.999C44.844,22.508,45.268,21.757,45.077,20.918z
		 M40.498,27.956c-0.459,0.695-0.92,1.389-1.379,2.084c-0.286,0.433-0.6,0.819-0.928,1.194c0.055-0.23,0.098-0.463,0.17-0.688
		c0.324-1.008,1.147-1.786,1.695-2.68c0.61-0.999,0.948-2.083,1.43-3.139c0.455-0.998,1.027-1.938,1.443-2.956
		c0.078-0.192-0.084-0.453-0.279-0.492c-1.202-0.241-2.201-1.039-3.434-1.177c-0.236-0.026-0.374,0.204-0.4,0.4
		c-0.043,0.331-0.207,0.698-0.301,1.022c-0.108,0.372-0.22,0.742-0.332,1.113c-0.242,0.803-0.488,1.604-0.722,2.409
		c-0.435,1.491-0.874,2.954-0.767,4.522c0.103,1.513,0.541,2.973,0.919,4.433c0.397,1.542,0.577,3.023,0.387,4.611
		c-0.185,1.546-0.533,3.068-0.724,4.615c-0.088,0.711-0.174,1.42-0.164,2.139c0.01,0.795,0.262,1.557,0.332,2.346
		c0.277,3.125-1.152,6.125-1.5,9.189c-0.049,0.438-0.024,0.891-0.141,1.318c-0.065,0.235-0.311,0.152-0.498,0.114
		c-0.521-0.108-1.017-0.259-1.549-0.329c-0.239-0.031-0.479-0.052-0.718-0.079c0.188-0.095,0.373-0.194,0.543-0.319
		c0.417-0.303,0.747-0.699,0.998-1.148c0.499-0.895,0.584-1.975,0.601-2.979c0.028-1.584-0.26-3.158-0.272-4.744
		c-0.013-1.57-0.163-3.129-0.457-4.674c-0.095-0.49-0.283-0.916-0.522-1.351c-0.25-0.456-0.392-0.962-0.658-1.411
		c-0.424-0.715-1.152-0.852-1.925-0.756c-0.631,0.079-1.233,0.258-1.844,0.426c-0.787,0.217-1.596,0.357-2.405,0.455
		c-0.718,0.088-1.441,0.129-2.164,0.157c-0.75,0.03-1.551,0.11-2.295-0.01c-1.067-0.173-1.995-0.94-1.439-2.062
		c0.306-0.615,0.858-0.955,1.395-1.343c0.529-0.383,1.033-0.8,1.528-1.226c1.008-0.863,1.977-1.774,3.039-2.572
		c0.741-0.557,1.508-1.077,2.241-1.645c0.282-0.22,0.564-0.44,0.817-0.692c0.3-0.301,0.439-0.73,0.583-1.12
		c0.344-0.927,0.277-1.935,0.408-2.9c0.182-1.334,0.039-2.648,0.105-3.987c0.039-0.79,0.284-1.474,0.557-2.206
		c0.244-0.654,0.339-1.361,0.412-2.051c0.017-0.163-0.134-0.357-0.294-0.386c-0.783-0.141-1.588-0.155-2.379-0.232
		c-0.885-0.086-1.77-0.181-2.658-0.233c-1.825-0.107-3.634,0.155-5.455,0.196c-1.716,0.038-3.326,0.114-4.963,0.675
		c-0.495,0.17-1.085,0.116-1.597,0.076c-0.03-0.002-0.058-0.009-0.088-0.012c0.445-0.189,0.896-0.363,1.382-0.492
		c0.938-0.248,1.875-0.498,2.814-0.74s1.88-0.473,2.825-0.69c0.945-0.216,1.898-0.459,2.869-0.504
		c0.86-0.04,1.723,0.039,2.583,0.027c0.909-0.012,1.812-0.172,2.709-0.298c0.999-0.141,2.021-0.204,3.029-0.24
		c0.326,0.18,0.813,0.237,1.122,0.304c0.586,0.126,1.166,0.163,1.762,0.191c0.57,0.027,1.142,0.062,1.714,0.073
		c0.262,0.005,0.664,0.045,0.96-0.057c0.687,0.212,1.365,0.446,2.039,0.697c0.949,0.36,1.879,0.887,2.644,1.555
		c0.449,0.393,0.839,0.868,1.003,1.451c0.207,0.739-0.568,1.702-0.932,2.312C42.46,24.976,41.48,26.468,40.498,27.956z
		 M37.525,29.937c-0.2-1.693,0.289-3.255,0.759-4.864c0.235-0.805,0.481-1.606,0.724-2.408c0.166-0.552,0.385-1.13,0.518-1.705
		c0.856,0.187,1.624,0.695,2.461,0.97c-0.427,0.944-0.964,1.836-1.368,2.791c-0.233,0.551-0.414,1.118-0.67,1.661
		c-0.302,0.637-0.669,1.241-1.065,1.823c-0.304,0.445-0.691,0.841-0.955,1.311c-0.144,0.256-0.246,0.536-0.336,0.819
		C37.571,30.202,37.541,30.071,37.525,29.937z"/>
	<path d="M34.042,14.952c1.845,1.276,4.397,0.908,5.948-0.641c0.863-0.863,1.309-2.062,1.328-3.27
		c-0.034-2.224-1.58-4.141-3.768-4.598c-2.156-0.45-4.408,0.765-5.247,2.792C31.44,11.322,32.206,13.681,34.042,14.952z
		 M36.63,7.152c2.146-0.034,3.856,1.794,3.89,3.889c-0.035,2.146-1.744,3.855-3.89,3.889c-2.146,0.034-3.856-1.795-3.889-3.889
		C32.707,8.895,34.536,7.185,36.63,7.152z"/>
	<path d="M31.743,35.24c-2.465,1.339-4.93,2.679-7.395,4.018c-0.318,0.174-0.086,0.604,0.231,0.549
		c2.575-0.447,5.15-0.895,7.725-1.342c0.098-0.017,0.187-0.115,0.209-0.21C32.675,37.604,33.323,34.458,31.743,35.24z
		 M32.159,36.902c-0.04,0.34-0.112,0.679-0.189,1.015c-1.91,0.332-3.82,0.664-5.729,0.995c1.936-1.051,3.871-2.103,5.807-3.154h0
		c0.074-0.036,0.104-0.011,0.074-0.053c0.061,0.082,0.069,0.206,0.078,0.304C32.227,36.305,32.194,36.607,32.159,36.902z"/>
</g>
</svg>
