<?xml version="1.0" encoding="utf-8"?>
<!-- Generator: Adobe Illustrator 16.0.4, SVG Export Plug-In . SVG Version: 6.00 Build 0)  -->
<!DOCTYPE svg PUBLIC "-//W3C//DTD SVG 1.1//EN" "http://www.w3.org/Graphics/SVG/1.1/DTD/svg11.dtd">
<svg version="1.1" id="Capa_1" xmlns="http://www.w3.org/2000/svg" xmlns:xlink="http://www.w3.org/1999/xlink" x="0px" y="0px"
	 width="100%" height="100%" style="fill: #9d9d9d;" viewBox="0 0 64 64" enable-background="new 0 0 64 64" xml:space="preserve">
<g>
	<path d="M24.684,32.659c-1.982-1.051-4.461-0.857-6.295,0.407c-1.804,1.244-2.788,3.459-2.488,5.631
		c0.303,2.193,1.816,3.972,3.86,4.766c1.836,0.713,3.989,0.391,5.595-0.716c1.589-1.095,2.521-2.921,2.545-4.84
		c0-0.003-0.001-0.005-0.001-0.008C27.869,35.688,26.637,33.694,24.684,32.659z M23.262,42.854
		c-2.253,0.639-4.695-0.381-5.904-2.357c-1.222-1.997-0.805-4.587,0.818-6.219c1.659-1.668,4.313-1.936,6.336-0.801
		c1.595,0.894,2.565,2.614,2.588,4.43C27.071,40.24,25.496,42.221,23.262,42.854z"/>
	<path d="M40.871,38.875c-1.141-0.045-2.016,0.95-2.061,2.031c-0.047,1.148,0.989,1.988,2.061,2.031
		c1.141,0.045,2.016-0.951,2.061-2.031C42.884,39.757,42.014,38.92,40.871,38.875z M39.611,40.906c-0.064-1.594,2.455-1.588,2.52,0
		C42.066,42.498,39.677,42.498,39.611,40.906z"/>
	<path d="M50.327,12.022c-1.833,1.644-3.666,3.287-5.499,4.931c-0.438,0.392-0.874,0.783-1.311,1.175
		c-0.242,0.216-0.485,0.408-0.66,0.683c-0.358,0.563-0.043,1.143,0.181,1.68c0.319,0.765,0.637,1.529,0.956,2.294
		c0.4,0.961,1.715,1.372,2.347,0.351c0.443-0.715,0.029-1.356-0.255-2.038c-0.11-0.266-0.222-0.533-0.333-0.799
		c0.024-0.042,0.053-0.093,0.065-0.112c0.761-1.12,1.832-2.102,2.808-3.031c0.356-0.34,0.727-0.678,1.121-0.979
		c-0.011,0.038-0.015,0.07-0.028,0.111c-0.421,1.271-0.841,2.541-1.262,3.812c-0.047,0.142-0.064,0.269,0.014,0.412
		c0.08,0.15,0.287,0.24,0.451,0.184c0.426-0.146,0.551-0.929,0.676-1.293c0.024-0.07,0.045-0.142,0.069-0.212
		c-0.104,2.354-0.209,4.708-0.313,7.062c-0.074,1.658-0.147,3.317-0.222,4.975c-0.028,0.656,0.056,1.449-0.112,2.083
		c-0.117,0.447-0.441,0.871-0.705,1.24c-0.463,0.648-0.896,1.088-1.672,1.271c-0.818,0.191-1.68,0.221-2.517,0.244
		c-1.353,0.037-2.711-0.008-4.061-0.104c-0.015-0.013-0.046-0.032-0.114-0.065c-0.243-0.119-0.486-0.238-0.729-0.356
		c-0.551-0.269-1.102-0.537-1.652-0.804c-1.112-0.541-2.227-1.076-3.342-1.609c-2.121-1.013-4.249-2.013-6.395-2.97
		c-0.588-0.262-1.182-0.53-1.779-0.789c0.21-1.932,0.419-3.864,0.628-5.796c1.259,0.149,2.5,0.081,3.745-0.152
		c0.726-0.136,1.675-0.34,2.175-0.941c0.889-1.067-0.639-2.15-1.427-2.646c-1.186-0.748-2.507-1.299-3.817-1.789
		c-1.35-0.505-2.742-0.867-4.177-1.01c-1.154-0.115-2.644-0.182-3.678,0.442c-1.71,1.031,0.018,3.142,0.995,3.962
		c0.002,0.002,0.005,0.002,0.008,0.004c0.905,0.724,2.023,1.208,3.186,1.545c-0.186,1.783-0.371,3.565-0.557,5.347
		c-0.493-0.073-0.993-0.034-1.499,0.005c-1.031,0.08-2.055,0.281-3.027,0.637c-1.778,0.651-3.246,1.878-4.187,3.522
		c-1.029,1.799-1.411,4.019-1.332,6.071c0.114,2.969,1.691,5.435,4.279,6.806c-0.042,0.087-0.069,0.187-0.071,0.304
		c-0.017,1.03-0.034,2.062-0.051,3.093c-1.021,0.051-2.041,0.103-3.061,0.153c-0.898,0.045-0.903,1.445,0,1.4
		c1.25-0.062,2.5-0.125,3.75-0.188c0.386-0.02,0.693-0.305,0.7-0.701c0.02-1.155,0.039-2.312,0.057-3.469
		c2.57,0.92,5.298,0.825,8.016,0.862c5.196,0.071,10.392,0.143,15.588,0.213c-0.016,0.78-0.031,1.561-0.047,2.34
		c-1.021,0.046-2.043,0.092-3.064,0.138c-0.898,0.039-0.902,1.44,0,1.399c1.25-0.056,2.5-0.112,3.75-0.168
		c0.388-0.017,0.692-0.305,0.701-0.7c0.021-0.996,0.04-1.993,0.061-2.99c0.132,0.002,0.265,0.004,0.396,0.006
		c0.467,0.007,0.934,0.014,1.402,0.02c0.581,0.008,1.132-0.538,1.493-0.928c0.614-0.663,1.1-1.45,1.547-2.23
		c0.976-1.701,1.793-3.543,2.372-5.418c0.265-0.857,0.357-1.75,0.449-2.64c0.652-6.326,0.807-12.722,1.048-19.075
		c0.042-1.121,0.083-2.241,0.12-3.362c0.007-0.164,0.011-0.327,0.018-0.491C52.591,11.726,51.15,11.37,50.327,12.022z
		 M24.472,23.199c0.471,0.125,0.941,0.25,1.413,0.375c-0.195,1.795-0.39,3.59-0.584,5.386c-0.458-0.177-0.915-0.354-1.373-0.532
		C24.109,26.685,24.291,24.941,24.472,23.199z M19.599,18.823c-0.117-1.06,1.687-1.022,2.327-1.038
		c2.327-0.061,4.617,0.704,6.721,1.636c0.65,0.288,1.289,0.604,1.902,0.965c0.502,0.295,1.082,0.641,1.411,1.137
		c0.27,0.406-0.122,0.628-0.553,0.801c-1.096,0.439-2.373,0.553-3.542,0.533c-1.342-0.024-2.679-0.289-3.961-0.674
		c-0.974-0.291-2.035-0.668-2.839-1.313C20.469,20.37,19.691,19.649,19.599,18.823z M51.718,13.807
		c-0.036,1.049-0.075,2.099-0.114,3.148c-0.125,3.314-0.266,6.627-0.435,9.938c-0.155,3.036-0.303,6.082-0.619,9.106
		c-0.302,2.892-1.546,5.673-3.067,8.146c-0.412,0.668-0.881,1.399-1.512,1.887c-0.107,0.082-0.224,0.15-0.345,0.211
		c-0.045,0.021-0.248,0.041-0.127,0.043c-0.043-0.001-0.086-0.001-0.129-0.002c-0.693-0.01-1.386-0.02-2.078-0.028
		c-2.912-0.04-5.825-0.08-8.737-0.12c-2.936-0.039-5.873-0.08-8.809-0.121c-0.983-0.013-1.972,0.004-2.955-0.046
		c-2.068-0.102-4.194-0.642-5.923-1.809c-2.956-1.996-3.406-5.677-2.641-8.931c0.453-1.929,1.489-3.673,3.169-4.767
		c0.821-0.535,1.747-0.871,2.697-1.091c0.509-0.118,1.027-0.188,1.547-0.234c0.272-0.024,0.545-0.036,0.818-0.044
		c0.14-0.004,0.281-0.005,0.421-0.005c0.01,0,0.036,0.002,0.056,0.004c0.459,0.072,0.913,0.262,1.344,0.425
		c0.767,0.29,1.522,0.613,2.274,0.941c2.083,0.907,4.141,1.871,6.194,2.844c2.194,1.04,4.381,2.099,6.563,3.166
		c0.506,0.247,0.801,0.3,1.342,0.331c0.754,0.043,1.508,0.068,2.263,0.075c0.908,0.009,1.819-0.01,2.724-0.097
		c0.698-0.067,1.432-0.161,2.067-0.479c0.735-0.366,1.298-1.28,1.706-1.958c0.637-1.056,0.486-2.319,0.54-3.511
		c0.216-4.85,0.431-9.7,0.647-14.55c0.001-0.031-0.008-0.056-0.012-0.083c0.068-0.268,0.102-0.54,0.021-0.794
		c-0.166-0.523-0.73-0.303-1.047-0.089c-1.158,0.784-2.154,1.886-3.104,2.902c-0.436,0.466-0.861,0.942-1.244,1.452
		c-0.232,0.309-0.352,0.559-0.197,0.93c0.238,0.571,0.477,1.142,0.713,1.712c0.141,0.337-0.209,0.62-0.513,0.635
		c-0.349,0.017-0.497-0.483-0.598-0.722c-0.319-0.765-0.638-1.529-0.956-2.294c-0.135-0.321-0.27-0.614,0.029-0.882
		c0.105-0.095,0.211-0.19,0.318-0.285c0.418-0.375,0.836-0.751,1.256-1.126c1.873-1.68,3.748-3.361,5.623-5.041
		c0-0.001,0.002-0.002,0.004-0.004c0.001-0.001,0.002-0.002,0.003-0.004c0.431-0.336,0.86,0.021,0.846,0.477
		C51.734,13.31,51.727,13.559,51.718,13.807z"/>
	<path d="M34.417,40c-0.298-0.14-0.938-0.203-1.589-0.212c0.109-0.805,0.218-1.608,0.326-2.412c0.396-0.088,0.697-0.424,0.697-0.845
		c0-0.487-0.396-0.883-0.883-0.883c-0.487,0-0.882,0.396-0.882,0.883c0,0.338,0.197,0.623,0.478,0.771
		c-0.112,0.831-0.225,1.662-0.338,2.493C31.649,39.821,31.149,39.891,31,40c-0.34,0.25-0.674,1.035,0.042,1.083
		c2.168,0.147,3.438,0.271,3.854,0.125S35.084,40.312,34.417,40z"/>
</g>
</svg>
