<?xml version="1.0" encoding="utf-8"?>
<!-- Generator: Adobe Illustrator 16.0.4, SVG Export Plug-In . SVG Version: 6.00 Build 0)  -->
<!DOCTYPE svg PUBLIC "-//W3C//DTD SVG 1.1//EN" "http://www.w3.org/Graphics/SVG/1.1/DTD/svg11.dtd">
<svg version="1.1" id="Capa_1" xmlns="http://www.w3.org/2000/svg" xmlns:xlink="http://www.w3.org/1999/xlink" x="0px" y="0px"
	 width="100%" height="100%" style="fill: #9d9d9d;" viewBox="0 0 64 64" enable-background="new 0 0 64 64" xml:space="preserve">
<g>
	<path d="M52.668,43.066c-0.677-0.215-1.418-0.224-2.12-0.276c-0.927-0.071-1.854-0.136-2.782-0.194
		c-1.844-0.117-3.688-0.217-5.535-0.298c-1.481-0.063-2.969-0.021-4.453-0.011c0.334-2.91,0.605-5.825,1.113-8.714
		c0.279-1.595,0.604-3.182,0.909-4.772c0.265-1.381,0.665-2.838,0.646-4.252c-0.014-0.915-0.366-1.757-1.045-2.374
		c-0.889-0.811-2.162-1.154-3.223-1.678c-0.654-0.323-1.302-0.654-1.968-0.952c-0.265-0.118-0.508,0.036-0.765,0.122
		c-0.369,0.124-0.75,0.212-1.133,0.287c-1.459,0.285-3.015,0.172-4.433-0.258c-0.248-0.075-0.491-0.168-0.731-0.266
		c-0.119-0.048-0.308,0.005-0.389,0.103c-0.66,0.799-1.73,1.219-2.634,1.681c-0.864,0.442-1.611,0.863-2.209,1.646
		c-1.212,1.584-0.596,3.624-0.284,5.398c0.798,4.543,1.599,9.084,2.397,13.625c-3.009-0.019-6.017-0.307-9.019-0.499
		c-1.884-0.12-4.685-0.659-5.896,1.271c-0.789,1.258-0.175,2.898,0.698,3.928c1.812,2.134,4.883,2.57,7.485,2.945
		c1.564,0.226,3.136,0.39,4.702,0.596c1.607,0.211,3.188,0.531,4.773,0.867c0.717,0.15,1.442,0.271,2.153,0.443
		c0.675,0.162,1.333,0.366,2.03,0.408c0.647,0.039,1.276-0.265,1.894-0.424c0.782-0.203,1.584-0.316,2.391-0.376
		c1.525-0.115,3.037,0.062,4.558,0.149c1.521,0.086,3.048,0.074,4.567-0.047c1.486-0.119,2.963-0.36,4.41-0.72
		c1.386-0.343,2.89-0.766,4.132-1.485c1.228-0.711,2.251-2.135,1.969-3.602C54.586,44.186,53.789,43.422,52.668,43.066z
		 M21.045,49.199c-1.56-0.194-3.123-0.366-4.675-0.62c-1.413-0.231-2.841-0.511-4.132-1.152c-1.389-0.69-3.061-2.221-2.603-3.968
		c0.183-0.698,0.811-1.086,1.465-1.273c1.291-0.371,2.797-0.074,4.11,0.01c2.948,0.188,5.9,0.471,8.854,0.488
		c0,0.004-0.002,0.006-0.001,0.01c0.064,0.918,0.198,1.834,0.362,2.74c0.075,0.416,0.163,0.836,0.263,1.258
		c-0.705-0.295-1.424-0.438-2.192-0.455c-0.897-0.02-1.786,0.089-2.684,0.007c-1.001-0.093-2.022-0.419-2.994-0.669
		c-1.004-0.26-1.999-0.572-2.919-1.059c-0.228-0.121-0.43,0.226-0.202,0.344c1.659,0.877,3.567,1.271,5.387,1.673
		c1.863,0.407,3.771-0.244,5.565,0.567c0.054,0.024,0.105,0.021,0.15,0.006c0.254,0.965,0.594,1.91,1.131,2.73
		c0.046,0.071,0.107,0.139,0.162,0.208C24.42,49.708,22.743,49.41,21.045,49.199z M29.585,47.997
		c0.53,0.569,0.876,1.272,0.544,2.055c-0.115,0.272-0.305,0.527-0.526,0.744c-0.153-0.034-0.307-0.067-0.46-0.103
		c0.052-0.055,0.11-0.092,0.159-0.157C29.834,49.814,29.799,48.825,29.585,47.997z M30.118,50.91
		c-0.022-0.006-0.044-0.01-0.067-0.016c0.211-0.248,0.385-0.529,0.5-0.83c0.455-1.194-0.446-2.241-1.353-2.953
		c-0.436-0.726-1.047-1.34-1.272-2.18c-0.193-0.72-0.056-1.494,0.201-2.18c0.094-0.249,0.216-0.419,0.162-0.695
		c-0.172-0.884-0.322-1.771-0.46-2.66c-0.219-1.418-0.4-2.848-0.474-4.281c-0.031-0.615-0.039-1.233,0.018-1.848
		c0.03-0.322,0.109-0.797,0.284-0.983c0.353-0.375-0.212-0.942-0.566-0.566c-0.521,0.554-0.535,1.482-0.556,2.194
		c-0.034,1.193,0.09,2.395,0.23,3.578c0.187,1.576,0.434,3.15,0.741,4.709c-0.792,1.57-0.51,3.385,0.635,4.701
		c0.642,0.738,0.977,1.894,0.685,2.842c-0.222,0.719-0.972,0.759-1.527,0.41c-0.544-0.34-0.878-0.992-1.139-1.555
		c-0.335-0.721-0.55-1.5-0.734-2.271c-0.274-1.146-0.454-2.321-0.554-3.495c-0.004-0.046-0.008-0.094-0.011-0.141
		c-0.004-0.06-0.02-0.108-0.042-0.154c0.07-0.096,0.1-0.225,0.077-0.354c-0.785-4.461-1.571-8.924-2.355-13.386
		c-0.184-1.048-0.397-2.1-0.537-3.154c-0.114-0.856,0.113-1.683,0.608-2.382c0.54-0.764,1.457-1.119,2.257-1.531
		c0.792-0.408,1.652-0.809,2.28-1.458c2.171,0.821,4.652,0.83,6.835,0.045c0.99,0.453,1.949,0.969,2.945,1.415
		c0.762,0.342,1.547,0.609,2.137,1.229c0.504,0.531,0.604,1.268,0.578,1.97c-0.047,1.216-0.383,2.464-0.611,3.656
		c-0.454,2.372-0.948,4.738-1.288,7.131c-0.328,2.312-0.536,4.643-0.81,6.961c0,0.004-0.002,0.008-0.002,0.012
		c-0.062,0.908-0.197,1.813-0.367,2.707c-0.271,1.438-0.625,3.104-1.563,4.271c-0.362,0.452-0.894,0.829-1.497,0.666
		c-0.869-0.234-0.665-1.654-0.486-2.259c0.16-0.541,0.474-0.991,0.836-1.413c0.408-0.473,0.681-1.048,0.815-1.654
		c0.192-0.859,0.052-1.791-0.282-2.598c-0.031-0.075-0.066-0.148-0.102-0.223c0.258-1.488,0.488-2.984,0.689-4.482
		c0.154-1.159,0.297-2.32,0.381-3.486c0.053-0.729,0.172-1.621-0.073-2.329c-0.167-0.485-0.94-0.276-0.771,0.213
		c0.147,0.431,0.1,0.958,0.082,1.42c-0.027,0.795-0.109,1.588-0.195,2.377c-0.183,1.638-0.424,3.268-0.688,4.894
		c-0.066,0.419-0.137,0.839-0.209,1.257c-0.062,0.356,0.164,0.672,0.271,1.01c0.353,1.113,0.172,2.273-0.601,3.168
		c-0.235,0.273-0.425,0.574-0.591,0.886c-0.922,0.704-1.823,1.673-1.659,2.895c0.047,0.351,0.197,0.702,0.409,1.005
		c-0.026,0.004-0.052,0.017-0.079,0.02C30.876,51.082,30.486,50.993,30.118,50.91z M31.779,50.904
		c-0.198-0.237-0.358-0.51-0.433-0.805c-0.212-0.843,0.288-1.59,0.909-2.181c-0.104,0.354-0.183,0.72-0.192,1.103
		c-0.016,0.635,0.207,1.228,0.588,1.633c-0.123,0.029-0.246,0.054-0.366,0.087C32.115,50.787,31.948,50.85,31.779,50.904z
		 M52.377,48.323c-0.627,0.362-1.365,0.585-2.05,0.815c-0.753,0.256-1.521,0.463-2.295,0.643c-2.994,0.695-6.099,0.781-9.153,0.547
		c-1.105-0.085-2.202-0.143-3.302-0.096c0.429-0.518,0.733-1.164,0.97-1.752c0.174-0.433,0.321-0.879,0.451-1.332
		c0.988-0.224,1.934-0.119,2.932,0.08c1.032,0.205,2.006,0.285,3.057,0.197c2.009-0.166,4.201-0.218,5.99-1.254
		c0.224-0.129,0.021-0.475-0.203-0.345c-1.854,1.075-4.164,1.051-6.239,1.237c-1.03,0.095-2.031-0.14-3.035-0.326
		c-0.808-0.15-1.597-0.176-2.392-0.025c0.307-1.188,0.488-2.417,0.59-3.623c1.351-0.007,2.701-0.038,4.052-0.007
		c1.608,0.037,3.22,0.146,4.826,0.241c1.657,0.097,3.313,0.211,4.969,0.346c1.21,0.1,2.252,0.643,2.562,1.885l0,0
		C54.328,46.727,53.301,47.788,52.377,48.323z"/>
	<path d="M28.098,17.814c1.903,0.992,4.238,0.853,6.054-0.258c1.807-1.104,2.873-3.125,2.898-5.223l0,0l0,0l0,0l0,0
		c-0.027-2.221-1.201-4.24-3.124-5.355c-1.934-1.123-4.396-1.022-6.286,0.134c-1.888,1.155-2.971,3.31-2.892,5.502
		C24.829,14.808,26.165,16.807,28.098,17.814z M26.678,9.031c1.439-1.848,3.925-2.489,6.106-1.712
		c2.092,0.746,3.442,2.835,3.468,5.014c-0.027,2.321-1.508,4.37-3.718,5.1c-2.214,0.731-4.69-0.146-6.026-2.031
		C25.161,13.503,25.254,10.859,26.678,9.031z"/>
	<path d="M50.208,36.35c-0.513-0.059-0.506,0.741,0,0.801c3.729,0.434,7.59,3.156,8.198,7.039c0.08,0.511,0.85,0.293,0.771-0.213
		C58.512,39.725,54.262,36.82,50.208,36.35z"/>
	<path d="M53.076,39.404c-0.465-0.211-0.872,0.478-0.403,0.691c2.038,0.926,3.29,2.526,4.065,4.594
		c0.181,0.478,0.953,0.271,0.771-0.213C56.664,42.225,55.307,40.417,53.076,39.404z"/>
	<path d="M13.792,36.15c0.506-0.061,0.512-0.859,0-0.801c-4.054,0.471-8.303,3.375-8.969,7.627
		c-0.079,0.506,0.692,0.722,0.771,0.213C6.202,39.309,10.062,36.583,13.792,36.15z"/>
	<path d="M11.326,39.096c0.47-0.214,0.063-0.902-0.403-0.691c-2.23,1.015-3.588,2.822-4.434,5.072
		c-0.182,0.484,0.592,0.691,0.771,0.213C8.037,41.624,9.288,40.021,11.326,39.096z"/>
</g>
</svg>
