<?xml version="1.0" encoding="utf-8"?>
<!-- Generator: Adobe Illustrator 16.0.4, SVG Export Plug-In . SVG Version: 6.00 Build 0)  -->
<!DOCTYPE svg PUBLIC "-//W3C//DTD SVG 1.1//EN" "http://www.w3.org/Graphics/SVG/1.1/DTD/svg11.dtd">
<svg version="1.1" id="Layer_1" xmlns="http://www.w3.org/2000/svg" xmlns:xlink="http://www.w3.org/1999/xlink" x="0px" y="0px"
	 width="100%" height="100%" style="fill: #9d9d9d;" viewBox="0 0 50 50" enable-background="new 0 0 50 50" xml:space="preserve">
<path d="M37.787,9.345h-0.34V6.781c0-0.5-0.405-0.905-0.905-0.905s-0.905,0.405-0.905,0.905v2.563h-2.823
	c-0.331-0.367-0.807-0.603-1.341-0.603c-0.533,0-1.009,0.236-1.341,0.603H19.866c-0.332-0.367-0.808-0.603-1.341-0.603
	c-0.534,0-1.01,0.236-1.341,0.603h-2.823V6.781c0-0.5-0.405-0.905-0.905-0.905s-0.905,0.405-0.905,0.905v2.563h-0.34
	c-0.5,0-0.905,0.405-0.905,0.905s0.405,0.905,0.905,0.905h0.34v32.063c0,0.5,0.405,0.905,0.905,0.905s0.905-0.405,0.905-0.905
	V11.155h2.354v5.172c0,2.865,1.753,5.296,4.166,6.122v17.58c0,1,0.812,1.812,1.812,1.812s1.811-0.812,1.811-1.812v-7.432h0.994
	v7.432c0,1,0.811,1.812,1.811,1.812s1.812-0.812,1.812-1.812v-17.58c2.413-0.825,4.166-3.257,4.166-6.122v-5.172h2.354v32.063
	c0,0.5,0.405,0.905,0.905,0.905s0.905-0.405,0.905-0.905V11.155h0.34c0.5,0,0.905-0.405,0.905-0.905S38.287,9.345,37.787,9.345z
	 M29.662,16.327c0,1.545-1.055,2.802-2.353,2.802h-0.154c1.056-0.7,1.753-1.896,1.753-3.257c0-2.159-1.75-3.909-3.909-3.909
	s-3.909,1.75-3.909,3.909c0,1.361,0.697,2.558,1.753,3.257h-0.154c-1.298,0-2.353-1.257-2.353-2.802v-5.172h9.326V16.327z"/>
</svg>
